<svg width="24" height="24" viewBox="0 0 24 24" fill="none" xmlns="http://www.w3.org/2000/svg">
<path d="M22 4.84999V16.74C22 17.71 21.21 18.6 20.24 18.72L19.93 18.76C18.29 18.98 15.98 19.66 14.12 20.44C13.47 20.71 12.75 20.22 12.75 19.51V5.59999C12.75 5.22999 12.96 4.88999 13.29 4.70999C15.12 3.71999 17.89 2.83999 19.77 2.67999H19.83C21.03 2.67999 22 3.64999 22 4.84999Z" fill="#1E3490"/>
<path d="M10.71 4.70999C8.88001 3.71999 6.11001 2.83999 4.23001 2.67999H4.16001C2.96001 2.67999 1.99001 3.64999 1.99001 4.84999V16.74C1.99001 17.71 2.78001 18.6 3.75001 18.72L4.06001 18.76C5.70001 18.98 8.01001 19.66 9.87001 20.44C10.52 20.71 11.24 20.22 11.24 19.51V5.59999C11.24 5.21999 11.04 4.88999 10.71 4.70999ZM5.00001 7.73999H7.25001C7.66001 7.73999 8.00001 8.07999 8.00001 8.48999C8.00001 8.90999 7.66001 9.23999 7.25001 9.23999H5.00001C4.59001 9.23999 4.25001 8.90999 4.25001 8.48999C4.25001 8.07999 4.59001 7.73999 5.00001 7.73999ZM8.00001 12.24H5.00001C4.59001 12.24 4.25001 11.91 4.25001 11.49C4.25001 11.08 4.59001 10.74 5.00001 10.74H8.00001C8.41001 10.74 8.75001 11.08 8.75001 11.49C8.75001 11.91 8.41001 12.24 8.00001 12.24Z" fill="#1E3490"/>
</svg>
