<svg width="20" height="20" viewBox="0 0 20 20" fill="none" xmlns="http://www.w3.org/2000/svg">
<path d="M17.75 10.1917H14.85C14.0333 10.1917 13.3083 10.6417 12.9417 11.375L12.2417 12.7583C12.075 13.0917 11.7417 13.3 11.375 13.3H8.64166C8.38332 13.3 8.01666 13.2417 7.77499 12.7583L7.07499 11.3833C6.70832 10.6583 5.97499 10.2 5.16666 10.2H2.24999C1.92499 10.2 1.66666 10.4583 1.66666 10.7833V13.5C1.66666 16.525 3.48332 18.3333 6.51666 18.3333H13.5C16.3583 18.3333 18.1167 16.7667 18.3333 13.9833V10.775C18.3333 10.4583 18.075 10.1917 17.75 10.1917Z" fill="#1E3490"/>
<path d="M13.4917 1.66666H6.50832C3.47499 1.66666 1.66666 3.475 1.66666 6.50833V9.04166C1.84999 8.975 2.04999 8.94166 2.24999 8.94166H5.16666C6.45832 8.94166 7.61666 9.65833 8.19166 10.8167L8.81666 12.0417H11.2L11.825 10.8083C12.4 9.65833 13.5583 8.94166 14.85 8.94166H17.75C17.95 8.94166 18.15 8.975 18.3333 9.04166V6.50833C18.3333 3.475 16.525 1.66666 13.4917 1.66666ZM8.70832 4.50833H11.2917C11.6083 4.50833 11.875 4.76666 11.875 5.08333C11.875 5.40833 11.6083 5.66666 11.2917 5.66666H8.70832C8.39166 5.66666 8.12499 5.40833 8.12499 5.08333C8.12499 4.76666 8.39166 4.50833 8.70832 4.50833ZM11.9417 7.99166H8.05832C7.74166 7.99166 7.48332 7.73333 7.48332 7.41666C7.48332 7.09166 7.74166 6.83333 8.05832 6.83333H11.9417C12.2583 6.83333 12.5167 7.09166 12.5167 7.41666C12.5167 7.73333 12.2583 7.99166 11.9417 7.99166Z" fill="#1E3490"/>
</svg>
