<svg width="18" height="18" viewBox="0 0 18 18" fill="none" xmlns="http://www.w3.org/2000/svg">
<path d="M9.00002 0.666664C4.40835 0.666664 0.666687 4.40833 0.666687 9C0.666687 13.5917 4.40835 17.3333 9.00002 17.3333C13.5917 17.3333 17.3334 13.5917 17.3334 9C17.3334 4.40833 13.5917 0.666664 9.00002 0.666664ZM12.625 11.975C12.5084 12.175 12.3 12.2833 12.0834 12.2833C11.975 12.2833 11.8667 12.2583 11.7667 12.1917L9.18335 10.65C8.54169 10.2667 8.06669 9.425 8.06669 8.68333V5.26666C8.06669 4.925 8.35002 4.64166 8.69169 4.64166C9.03335 4.64166 9.31669 4.925 9.31669 5.26666V8.68333C9.31669 8.98333 9.56669 9.425 9.82502 9.575L12.4084 11.1167C12.7084 11.2917 12.8084 11.675 12.625 11.975Z" fill="#1E3490"/>
</svg>
