<svg id="Layer_1" data-name="Layer 1" xmlns="http://www.w3.org/2000/svg" viewBox="0 0 131 131"><defs><style>.cls-1{fill:#293f8d;}.cls-2{fill:#fff;}</style></defs><rect class="cls-1" width="131" height="131" rx="23.69"/><path class="cls-2" d="M11.47,55c4.47,0,8.87-.21,13.25.06,3.93.25,6.19,3,6.11,6.79,0,2.33-.77,3.26-3.66,4.62,2.26.9,4.14,2.08,4.68,4.64.66,3.16-.48,5.51-3.69,6.76a14.75,14.75,0,0,1-4.77,1c-3.57.15-7.15,0-10.72.06-.95,0-1.38-.25-1.37-1.29,0-7.33,0-14.66,0-22A5.32,5.32,0,0,1,11.47,55Zm7.88,14.2v4.41c3.51.16,5-.54,4.95-2.31S22.78,68.83,19.35,69.2ZM19.29,65A20.59,20.59,0,0,0,23,63.36a2.21,2.21,0,0,0-.18-2,16.14,16.14,0,0,0-3.53-1Z"/><path class="cls-2" d="M53,71.82H41.12c-.25,1.27-.27,2.46.92,3.1a2,2,0,0,0,3-.8,1,1,0,0,1,.68-.34c2.24,0,4.47,0,7,0C51.4,77,49,78.33,46.16,79A12.21,12.21,0,0,1,35.1,76.24c-2.43-2.06-2.66-8.13-.35-10.63,3.9-4.22,8.41-4.79,13-2.67C51.53,64.68,53.49,67.44,53,71.82Zm-7.75-3.39c-.13-1.83-.95-2.66-2.37-2.54s-1.88,1-1.63,2.54Z"/><path class="cls-2" d="M120.93,62.32l-6.24,10.51h6.23c0,1.92,0,3.55,0,5.18,0,.32-.54.88-.84.88-5.42.06-10.84,0-16.61,0l6.24-10.69H104V62.32Z"/><path class="cls-2" d="M102.08,68.09l-2.5.12V78.92c-2.52,0-4.86,0-7.2-.06-.28,0-.74-.84-.75-1.29-.07-3.06,0-6.13,0-9.28L89.37,68v-5.7l2.18-.24V56.68h7.9v5.4l2.63.22Z"/><path class="cls-2" d="M69.78,78.82V53.37h7.57V78.82Z"/><path class="cls-2" d="M54.55,62.3h7.79l.19,2.35a6.85,6.85,0,0,1,5.84-2.41v5.82c-.48,0-1,.09-1.43.09-3,0-4.37,1.33-4.42,4.43,0,2,0,4,0,6.34-2.52,0-4.92,0-7.31,0-.23,0-.62-.49-.63-.76C54.54,72.88,54.55,67.64,54.55,62.3Z"/><path class="cls-2" d="M80,78.94V62.34h7.67c0,.49.1,1,.1,1.54,0,4.43-.06,8.86,0,13.28,0,1.5-.47,1.89-1.88,1.81C84,78.86,82.12,78.94,80,78.94Z"/><path class="cls-2" d="M83.78,60.62a4.65,4.65,0,0,1-4.44-4.42,4.86,4.86,0,0,1,4.43-4.48A4.9,4.9,0,0,1,88.21,56,4.59,4.59,0,0,1,83.78,60.62Z"/></svg>