<svg width="20" height="20" viewBox="0 0 20 20" fill="none" xmlns="http://www.w3.org/2000/svg">
<path d="M9.58334 17.5C13.9556 17.5 17.5 13.9556 17.5 9.58332C17.5 5.21107 13.9556 1.66666 9.58334 1.66666C5.21108 1.66666 1.66667 5.21107 1.66667 9.58332C1.66667 13.9556 5.21108 17.5 9.58334 17.5Z" fill="#68696F"/>
<path d="M17.75 18.3333C17.6 18.3333 17.45 18.275 17.3417 18.1667L15.7917 16.6167C15.5667 16.3917 15.5667 16.025 15.7917 15.7917C16.0167 15.5667 16.3833 15.5667 16.6167 15.7917L18.1667 17.3417C18.3917 17.5667 18.3917 17.9333 18.1667 18.1667C18.05 18.275 17.9 18.3333 17.75 18.3333Z" fill="#68696F"/>
</svg>
